<svg id="Layer_1" data-name="Layer 1" xmlns="http://www.w3.org/2000/svg" viewBox="0 0 424.26 299.64">
    <g id="lvl0">
        <polygon points="212.13 274.96 0 152.49 212.13 30.02 424.26 152.49 212.13 274.96" fill="#5a3238"/>
        <polygon points="212.13 299.64 0 177.17 0 152.49 212.13 274.96 212.13 299.64" fill="#381f23"/>
        <polygon points="424.26 152.49 424.26 177.17 212.13 299.64 212.13 274.96 424.26 152.49" fill="#512d32"/>
    </g>
    <g id="lvl1">
        <polygon points="212.13 244.95 0 122.47 212.13 0 424.26 122.47 212.13 244.95" fill="#78bfdb"/>
        <polygon points="212.13 269.44 0 146.97 0 122.47 212.13 244.95 212.13 269.44" fill="#4a7789"/>
        <polygon points="424.26 122.47 424.26 146.97 212.13 269.44 212.13 244.95 424.26 122.47" fill="#6bacc5"/>
    </g>
</svg>
