<svg xmlns="http://www.w3.org/2000/svg" viewBox="0 0 2041 1585">
  <g id="Water">
    <g id="lvl0">
      <polygon points="2040.54 877.15 1020.05 1466.34 -0.46 877.14 22.18 864.08 1020.04 1439.28 2017.9 864.08 2040.54 877.15" style="fill: #5a3238"/>
      <polygon points="1020.05 1585.05 -0.46 995.86 -0.46 877.15 1020.05 1466.34 1020.05 1585.05" style="fill: #381f23"/>
      <polygon points="2040.54 877.15 2040.54 995.86 1020.05 1585.05 1020.05 1466.34 2040.54 877.15" style="fill: #512d32"/>
    </g>
    <g id="lvl1">
      <polygon points="1020.05 1321.93 -0.46 732.74 1020.04 143.56 2040.54 732.75 1020.05 1321.93" style="fill: #78bfdb"/>
      <polygon points="1020.05 1439.76 -0.46 850.57 -0.46 732.74 1020.05 1321.93 1020.05 1439.76" style="fill: #4a7789"/>
      <polygon points="2040.54 732.75 2040.54 850.57 2017.53 863.86 1020.05 1439.76 1020.05 1321.93 2040.54 732.75" style="fill: #6bacc5"/>
    </g>
  </g>
</svg>
